<svg width="26" height="26" viewBox="0 0 26 26" fill="none" xmlns="http://www.w3.org/2000/svg">
<path fill-rule="evenodd" clip-rule="evenodd" d="M14.4609 19.438L13.392 23.4282C13.3457 23.6004 13.4176 23.7829 13.5688 23.8775C13.7199 23.9722 13.9153 23.9571 14.0502 23.8405L15.5659 22.5279L16.2224 24.4223C16.2805 24.5893 16.4397 24.6998 16.6164 24.6957C16.7928 24.6912 16.9467 24.5734 16.9963 24.4036L17.6759 22.0847L18.3471 24.4024C18.3962 24.5722 18.5498 24.6908 18.7269 24.6953C18.9036 24.7002 19.0633 24.5897 19.1214 24.4223L19.7779 22.5279L21.2936 23.8405C21.4285 23.9571 21.6239 23.9722 21.775 23.8775C21.9261 23.7829 21.998 23.6004 21.9517 23.4282L20.8829 19.438C21.6625 18.6332 22.1427 17.5368 22.1427 16.3286C22.1427 13.861 20.1394 11.8578 17.6719 11.8578C15.2043 11.8578 13.2011 13.861 13.2011 16.3286C13.2011 17.5368 13.6813 18.6332 14.4609 19.438ZM15.147 20.0173L14.5194 22.3594L15.4875 21.5213C15.5894 21.4331 15.7284 21.401 15.8588 21.4359C15.9888 21.4709 16.0932 21.568 16.1375 21.6955L16.5742 22.9553L17.2128 20.7758C16.4515 20.6982 15.7467 20.4289 15.147 20.0173ZM20.1967 20.0173C19.6003 20.4268 18.8992 20.6954 18.1427 20.7746L18.772 22.9488L19.2063 21.6955C19.2506 21.568 19.355 21.4709 19.485 21.4359C19.6154 21.401 19.7543 21.4331 19.8563 21.5213L20.8244 22.3594L20.1967 20.0173ZM1.21875 13.6859V19.7797C1.21875 20.103 1.34712 20.413 1.57584 20.6413C1.80416 20.87 2.11413 20.9984 2.4375 20.9984C5.07122 20.9984 13.2031 20.9984 13.2031 20.9984C13.4274 20.9984 13.6094 20.8164 13.6094 20.5922C13.6094 20.3679 13.4274 20.1859 13.2031 20.1859C13.2031 20.1859 5.07122 20.1859 2.4375 20.1859C2.32984 20.1859 2.22625 20.1433 2.15028 20.0669C2.07391 19.9909 2.03125 19.8873 2.03125 19.7797V13.6859C2.03125 13.4617 1.84925 13.2797 1.625 13.2797C1.40075 13.2797 1.21875 13.4617 1.21875 13.6859ZM1.21875 2.31091V12.0609C1.21875 12.2852 1.40075 12.4672 1.625 12.4672C1.84925 12.4672 2.03125 12.2852 2.03125 12.0609V4.74841H14.2188C14.443 4.74841 14.625 4.56641 14.625 4.34216C14.625 4.11791 14.443 3.93591 14.2188 3.93591H2.03125V2.31091C2.03125 2.08666 2.21325 1.90466 2.4375 1.90466H23.3594C23.5836 1.90466 23.7656 2.08666 23.7656 2.31091V3.93591H15.8438C15.6195 3.93591 15.4375 4.11791 15.4375 4.34216C15.4375 4.56641 15.6195 4.74841 15.8438 4.74841H23.7656V19.7797C23.7656 20.0039 23.5836 20.1859 23.3594 20.1859H22.3438C22.1195 20.1859 21.9375 20.3679 21.9375 20.5922C21.9375 20.8164 22.1195 20.9984 22.3438 20.9984H23.3594C24.0325 20.9984 24.5781 20.4528 24.5781 19.7797V2.31091C24.5781 1.63776 24.0325 1.09216 23.3594 1.09216H2.4375C1.76434 1.09216 1.21875 1.63776 1.21875 2.31091ZM17.6719 12.6703C19.6909 12.6703 21.3302 14.3095 21.3302 16.3286C21.3302 18.3476 19.6909 19.9869 17.6719 19.9869C15.6528 19.9869 14.0136 18.3476 14.0136 16.3286C14.0136 14.3095 15.6528 12.6703 17.6719 12.6703ZM11.7812 18.1547V17.3422C11.7812 16.669 11.2357 16.1234 10.5625 16.1234H4.875C4.20184 16.1234 3.65625 16.669 3.65625 17.3422V18.1547C3.65625 18.8278 4.20184 19.3734 4.875 19.3734H10.5625C11.2357 19.3734 11.7812 18.8278 11.7812 18.1547ZM18.0269 13.2281C17.9554 13.0993 17.8193 13.0193 17.6719 13.0193C17.5244 13.0193 17.3883 13.0993 17.3168 13.2281L16.5128 14.6739L14.8891 14.992C14.7444 15.0204 14.6266 15.1249 14.5811 15.265C14.5352 15.4056 14.5693 15.5591 14.6697 15.6672L15.7966 16.8786L15.5972 18.5211C15.5793 18.6674 15.6423 18.812 15.7617 18.8989C15.8807 18.9854 16.0379 19.0005 16.1716 18.9383L17.6719 18.2412L19.1722 18.9383C19.3058 19.0005 19.463 18.9854 19.5821 18.8989C19.7015 18.812 19.7645 18.6674 19.7466 18.5211L19.5471 16.8786L20.6741 15.6672C20.7744 15.5591 20.8085 15.4056 20.7626 15.265C20.7171 15.1249 20.5993 15.0204 20.4547 14.992L18.8309 14.6739L18.0269 13.2281ZM10.9688 17.3422V18.1547C10.9688 18.3789 10.7868 18.5609 10.5625 18.5609H4.875C4.65075 18.5609 4.46875 18.3789 4.46875 18.1547V17.3422C4.46875 17.1179 4.65075 16.9359 4.875 16.9359H10.5625C10.7868 16.9359 10.9688 17.1179 10.9688 17.3422ZM17.6719 14.2616L18.2126 15.2341C18.2707 15.3385 18.3723 15.4121 18.4897 15.4352L19.5817 15.6489L18.8236 16.4639C18.7423 16.5512 18.7038 16.6706 18.718 16.7893L18.852 17.8939L17.8429 17.425C17.7344 17.3747 17.6093 17.3747 17.5008 17.425L16.4917 17.8939L16.6258 16.7893C16.64 16.6706 16.6014 16.5512 16.5202 16.4639L15.7621 15.6489L16.8541 15.4352C16.9715 15.4121 17.0731 15.3385 17.1312 15.2341L17.6719 14.2616ZM4.0625 14.0922H11.5781C11.8024 14.0922 11.9844 13.9102 11.9844 13.6859C11.9844 13.4617 11.8024 13.2797 11.5781 13.2797H4.0625C3.83825 13.2797 3.65625 13.4617 3.65625 13.6859C3.65625 13.9102 3.83825 14.0922 4.0625 14.0922ZM4.0625 12.4672H12.5938C12.818 12.4672 13 12.2852 13 12.0609C13 11.8367 12.818 11.6547 12.5938 11.6547H4.0625C3.83825 11.6547 3.65625 11.8367 3.65625 12.0609C3.65625 12.2852 3.83825 12.4672 4.0625 12.4672ZM4.0625 10.8422H13.4062C13.6305 10.8422 13.8125 10.6602 13.8125 10.4359C13.8125 10.2117 13.6305 10.0297 13.4062 10.0297H4.0625C3.83825 10.0297 3.65625 10.2117 3.65625 10.4359C3.65625 10.6602 3.83825 10.8422 4.0625 10.8422ZM4.0625 8.54008H21.5312C21.7555 8.54008 21.9375 8.35808 21.9375 8.13383C21.9375 7.90958 21.7555 7.72758 21.5312 7.72758H4.0625C3.83825 7.72758 3.65625 7.90958 3.65625 8.13383C3.65625 8.35808 3.83825 8.54008 4.0625 8.54008ZM7.71875 6.77966H18.0781C18.3024 6.77966 18.4844 6.59766 18.4844 6.37341C18.4844 6.14916 18.3024 5.96716 18.0781 5.96716H7.71875C7.4945 5.96716 7.3125 6.14916 7.3125 6.37341C7.3125 6.59766 7.4945 6.77966 7.71875 6.77966Z" fill="#0B5457"/>
</svg>
