<svg width="24" height="24" viewBox="0 0 24 24" fill="none" xmlns="http://www.w3.org/2000/svg">
<g clip-path="url(#clip0_38_116)">
<path d="M21.75 9.19202H20.34C20.1915 8.75327 20.0362 8.38802 19.8577 8.03627L19.881 8.08652L20.8845 7.09352C21.147 6.86852 21.312 6.53702 21.312 6.16652C21.312 5.86202 21.2002 5.58302 21.015 5.36927L21.0165 5.37077L18.633 2.98727C18.4207 2.80277 18.1425 2.69102 17.8372 2.69102C17.4667 2.69102 17.1345 2.85677 16.9117 3.11852L16.9103 3.12002L15.9113 4.11752C15.6097 3.96302 15.2453 3.80777 14.8688 3.67802L14.8073 3.65927L14.814 2.24927C14.8162 2.21927 14.8177 2.18477 14.8177 2.14952C14.8177 1.50902 14.3228 0.984018 13.6943 0.936768H13.6905H10.3185C9.6855 0.984018 9.18975 1.50902 9.18975 2.14952C9.18975 2.18477 9.19125 2.21927 9.19425 2.25377V2.24927V3.65852C8.7555 3.80702 8.391 3.96152 8.03925 4.13927L8.0895 4.11602L7.0965 3.11402C6.87225 2.85002 6.54 2.68427 6.1695 2.68427C5.86425 2.68427 5.586 2.79677 5.37225 2.98202L5.37375 2.98052L2.9895 5.36477C2.805 5.57702 2.6925 5.85602 2.6925 6.16052C2.6925 6.53102 2.85825 6.86327 3.12 7.08602L3.1215 7.08752L4.11825 8.08427C3.963 8.38652 3.80775 8.75252 3.678 9.13052L3.66 9.19202L2.25 9.18527C2.22 9.18302 2.1855 9.18152 2.15025 9.18152C1.50975 9.18152 0.98475 9.67727 0.9375 10.3058V10.3095V13.6808C0.984 14.3138 1.50975 14.8095 2.15025 14.8095C2.1855 14.8095 2.22 14.808 2.2545 14.805H2.25H3.66C3.8085 15.2438 3.963 15.609 4.1415 15.9608L4.119 15.9113L3.11775 16.9013C2.8545 17.1263 2.68875 17.4593 2.68875 17.8305C2.68875 18.1358 2.8005 18.4148 2.98575 18.6285L2.98425 18.627L5.3685 21.0105C5.55525 21.195 5.81175 21.3098 6.096 21.3098C6.10125 21.3098 6.1065 21.3098 6.11175 21.3098H6.111C6.49725 21.3 6.84375 21.1365 7.092 20.8778L7.09275 20.877L8.09025 19.8795C8.3925 20.0348 8.7585 20.19 9.1365 20.3198L9.198 20.3385L9.19125 21.747C9.189 21.777 9.1875 21.8115 9.1875 21.846C9.1875 22.4865 9.68325 23.0123 10.3117 23.0588H10.3155H13.6875C14.3197 23.0108 14.8147 22.4865 14.8147 21.846C14.8147 21.8108 14.8132 21.7763 14.8102 21.7418V21.7463V20.3355C15.249 20.187 15.615 20.0318 15.9675 19.8533L15.9172 19.8765L16.908 20.8763C17.157 21.1343 17.5028 21.2978 17.886 21.3068H17.8875H17.889C17.8935 21.3068 17.8988 21.3068 17.9032 21.3068C18.1868 21.3068 18.4432 21.1935 18.6315 21.0105L21.0142 18.6278C21.1972 18.441 21.3105 18.1845 21.3105 17.9018C21.3105 17.895 21.3105 17.889 21.3105 17.8823C21.3015 17.4975 21.1388 17.1533 20.8815 16.905L20.8807 16.9043L19.8825 15.9053C20.037 15.6045 20.1915 15.24 20.322 14.8635L20.3407 14.8013L21.75 14.808C21.78 14.8103 21.8145 14.8118 21.849 14.8118C22.4902 14.8118 23.0153 14.316 23.0618 13.6868V13.683V10.3118C23.0145 9.67877 22.4895 9.18377 21.8482 9.18377C21.813 9.18377 21.7785 9.18527 21.7447 9.18827H21.7493L21.75 9.19202ZM21.753 13.6875L19.941 13.6785C19.926 13.6785 19.9132 13.686 19.899 13.6868C19.7505 13.7048 19.62 13.773 19.5233 13.8735C19.482 13.9275 19.446 13.9883 19.4175 14.0535L19.4152 14.0595C19.4115 14.07 19.4032 14.0775 19.4002 14.0888C19.2202 14.7218 18.9855 15.273 18.6922 15.7868L18.7117 15.75C18.6712 15.825 18.6472 15.9135 18.6472 16.008C18.6472 16.0088 18.6472 16.0103 18.6472 16.011C18.6472 16.023 18.6495 16.032 18.6502 16.0448C18.6547 16.185 18.7103 16.311 18.7995 16.4055L18.8062 16.4228L20.0865 17.7045C20.1682 17.7863 20.1892 17.8658 20.2185 17.8365L17.892 20.1863C17.8178 20.1765 17.7525 20.1405 17.706 20.0888L16.4332 18.804C16.4272 18.7973 16.4167 18.8003 16.4108 18.7943C16.32 18.7103 16.2007 18.657 16.0687 18.6495H16.0673C16.0522 18.6473 16.0342 18.6458 16.0162 18.645C15.9225 18.645 15.8333 18.669 15.7568 18.711L15.7598 18.7095C15.2828 18.981 14.73 19.2165 14.1503 19.3868L14.0947 19.401C14.0835 19.404 14.076 19.4123 14.0655 19.416C13.9935 19.4475 13.9312 19.485 13.8742 19.5278L13.8765 19.5263C13.8503 19.5518 13.827 19.5795 13.8068 19.6088L13.8052 19.6103C13.785 19.635 13.7655 19.6628 13.749 19.6928L13.7475 19.6958C13.7227 19.7565 13.7032 19.827 13.6927 19.9013L13.692 19.9065C13.6913 19.9185 13.6845 19.9298 13.6845 19.9418V21.7508C13.6845 21.8633 13.6432 21.9368 13.6845 21.9383L10.377 21.9555C10.338 21.9053 10.314 21.8408 10.314 21.771C10.314 21.765 10.314 21.759 10.3147 21.753L10.3237 19.9448C10.3237 19.932 10.3177 19.9208 10.3162 19.9088C10.3125 19.869 10.305 19.8323 10.2937 19.797L10.2945 19.8008C10.2855 19.761 10.2735 19.7258 10.2585 19.692L10.26 19.6958C10.221 19.6313 10.1782 19.5758 10.1302 19.5255C10.1085 19.5075 10.0837 19.491 10.0582 19.476L10.0552 19.4745C10.0222 19.452 9.9855 19.4325 9.94575 19.4175L9.942 19.416C9.9315 19.4123 9.924 19.404 9.91275 19.401C9.2775 19.2203 8.724 18.9855 8.20875 18.693L8.247 18.7125C8.17275 18.672 8.085 18.648 7.99125 18.648C7.97475 18.6473 7.96125 18.651 7.94475 18.6518C7.80975 18.6578 7.68825 18.7118 7.596 18.7965C7.59 18.8025 7.581 18.7995 7.575 18.8055L6.29625 20.0843C6.216 20.1645 6.13425 20.1885 6.16275 20.2178L3.81225 17.892C3.82125 17.817 3.85725 17.7518 3.90975 17.7045L5.19525 16.4333L5.2035 16.4138C5.28975 16.3215 5.34525 16.1993 5.35125 16.0643V16.0628C5.352 16.047 5.355 16.035 5.355 16.0193C5.355 16.0185 5.355 16.0178 5.355 16.017C5.355 15.9225 5.331 15.8333 5.289 15.756L5.2905 15.759C5.01675 15.282 4.78125 14.7308 4.61325 14.1503L4.59975 14.0963C4.59675 14.085 4.58775 14.0768 4.584 14.0655C4.5525 13.995 4.5165 13.9335 4.4745 13.878L4.476 13.8803C4.42725 13.8345 4.374 13.7925 4.317 13.7565L4.3125 13.7543C4.27425 13.7355 4.23075 13.7205 4.18425 13.7115L4.1805 13.7108C4.15875 13.704 4.13175 13.6988 4.104 13.695H4.101C4.086 13.6935 4.07325 13.686 4.0575 13.686H2.2485C2.1345 13.6875 2.0625 13.6448 2.061 13.6845L2.0445 10.3778C2.09475 10.3388 2.15775 10.3148 2.2275 10.3148C2.23425 10.3148 2.24025 10.3148 2.247 10.3155H2.24625L4.05825 10.3245C4.17225 10.3215 4.27725 10.284 4.3635 10.2225L4.362 10.224C4.38 10.2135 4.395 10.203 4.41 10.1918L4.4085 10.1925C4.49025 10.1265 4.55175 10.038 4.58475 9.93677L4.5855 9.93302C4.58775 9.92552 4.596 9.92252 4.59825 9.91427C4.77975 9.27902 5.0145 8.72702 5.30775 8.21177L5.28825 8.24927C5.32875 8.17427 5.35275 8.08577 5.35275 7.99127C5.35275 7.99052 5.35275 7.99052 5.35275 7.98977C5.3535 7.97552 5.3505 7.96502 5.34975 7.95077C5.3445 7.81277 5.28975 7.68827 5.202 7.59452L5.1945 7.57652L3.91575 6.29777C3.83475 6.21527 3.80925 6.13202 3.78375 6.16427L6.11025 3.81377C6.186 3.81977 6.252 3.85727 6.29625 3.91202L6.297 3.91277L7.56975 5.19752C7.58325 5.21102 7.60425 5.20577 7.6185 5.21777C7.71225 5.30852 7.83975 5.36477 7.98075 5.36477C8.07825 5.36477 8.169 5.33777 8.247 5.29127L8.24475 5.29277C8.72175 5.01977 9.27375 4.78502 9.8535 4.61627L9.9075 4.60277C9.918 4.59977 9.9255 4.59152 9.936 4.58852C9.97875 4.57277 10.0147 4.55327 10.0492 4.53077L10.047 4.53227C10.1692 4.46477 10.2577 4.34927 10.2877 4.21202L10.2885 4.20902C10.299 4.17677 10.3073 4.13927 10.311 4.10027V4.09802C10.3118 4.08602 10.3177 4.07552 10.3177 4.06352V2.25452C10.3177 2.14127 10.3597 2.06777 10.3185 2.06702L13.626 2.04977C13.665 2.10002 13.6882 2.16377 13.6882 2.23352C13.6882 2.24027 13.6882 2.24627 13.6875 2.25302L13.6785 4.06127C13.6785 4.07327 13.6845 4.08377 13.6852 4.09652C13.689 4.13777 13.6965 4.17602 13.7085 4.21277L13.7078 4.20902C13.761 4.38452 13.89 4.52327 14.0557 4.58852L14.0595 4.59002C14.07 4.59377 14.0782 4.60202 14.0887 4.60502C14.7225 4.78652 15.2737 5.02127 15.7875 5.31377L15.75 5.29427C15.8287 5.33927 15.9232 5.36627 16.0245 5.36627H16.0253C16.1625 5.36027 16.2855 5.30477 16.3785 5.21777C16.3912 5.20652 16.4107 5.21177 16.4227 5.19977L17.7045 3.92102C17.7833 3.84152 17.8643 3.81827 17.8365 3.78902L20.1862 6.11552C20.1772 6.19052 20.142 6.25502 20.0895 6.30227L18.8032 7.57502L18.795 7.59452C18.708 7.68677 18.6525 7.80977 18.6465 7.94552V7.94702C18.6458 7.96202 18.6427 7.97402 18.6427 7.98902C18.6427 7.98977 18.6427 7.99052 18.6427 7.99127C18.6427 8.08577 18.6667 8.17502 18.7087 8.25227L18.7073 8.24927C18.981 8.72627 19.2165 9.27752 19.3837 9.85727L19.3972 9.91052C19.3995 9.91952 19.4092 9.92327 19.4115 9.93152C19.446 10.0343 19.5068 10.1213 19.5855 10.1858L19.5863 10.1865C19.6005 10.1978 19.617 10.209 19.6335 10.2188L19.6357 10.2203C19.7197 10.2803 19.8247 10.3178 19.9373 10.3208H21.747C21.861 10.32 21.933 10.3635 21.9345 10.3215L21.9502 13.6283C21.9015 13.668 21.8385 13.692 21.7702 13.692C21.7627 13.692 21.756 13.692 21.7485 13.6913H21.7493L21.753 13.6875Z" fill="#0B5457"/>
<path d="M11.9982 7.08008C11.8311 7.08008 11.3872 7.08008 11.3872 7.51214V10.7297C11.3872 11.1618 11.8311 11.1618 11.9982 11.1618C12.1653 11.1618 12.6092 11.1618 12.6092 10.7297V7.51214C12.6092 7.08008 12.1653 7.08008 11.9982 7.08008Z" fill="#0B5457"/>
<path d="M15.8174 10.114C15.3926 9.43766 14.7959 8.8768 14.0919 8.49211C14.0671 8.47856 14.029 8.4624 13.988 8.4624C13.9535 8.4624 13.8408 8.47636 13.8408 8.6559V9.53548C13.8408 9.68768 13.9392 9.76212 13.9865 9.7979L13.9969 9.80584C14.8389 10.4637 15.3417 11.4492 15.3417 12.4419C15.3417 14.2856 13.8417 15.7856 11.998 15.7856C10.1543 15.7856 8.65428 14.2856 8.65428 12.4419C8.65428 11.4656 9.14501 10.4896 9.96705 9.83115C10.0111 9.79578 10.1552 9.66559 10.1552 9.47497V8.69314C10.1552 8.49452 10.0314 8.47908 9.99342 8.47908C9.93292 8.47908 9.87304 8.50876 9.8224 8.5378C8.38991 9.35967 7.5 10.8556 7.5 12.4419C7.5 14.9221 9.51778 16.9398 11.9979 16.9398C14.4781 16.9398 16.4959 14.922 16.4959 12.4419C16.4959 11.6258 16.2613 10.8209 15.8174 10.114Z" fill="#0B5457"/>
</g>
<defs>
<clipPath id="clip0_38_116">
<rect width="24" height="24" fill="white"/>
</clipPath>
</defs>
</svg>
