<svg width="26" height="26" viewBox="0 0 26 26" fill="none" xmlns="http://www.w3.org/2000/svg">
<g clip-path="url(#clip0_42_377)">
<path d="M25.1296 18.6436H25.1015V16.3693C25.1015 10.6934 21.1362 5.77392 15.629 4.55461C15.5997 4.26114 15.4741 3.98814 15.2654 3.77207C15.0144 3.51237 14.6774 3.36932 14.3163 3.36932H11.6838C11.3226 3.36932 10.9856 3.51237 10.7346 3.77207C10.5259 3.98814 10.4003 4.26114 10.371 4.55461C4.86378 5.77392 0.898473 10.6934 0.898473 16.3693V18.6436H0.870391C0.390406 18.6436 0 19.0341 0 19.514V20.0867C0 20.4657 0.239738 20.7987 0.596527 20.9153C3.97962 22.0215 8.38464 22.6307 13 22.6307C17.6154 22.6307 22.0204 22.0215 25.4035 20.9153C25.7603 20.7987 26 20.4657 26 20.0867V19.514C26 19.0341 25.6095 18.6436 25.1296 18.6436ZM11.3405 4.35732C11.4312 4.26343 11.5531 4.21163 11.6838 4.21163H14.3162C14.4468 4.21163 14.5687 4.26333 14.6595 4.35732C14.7502 4.45127 14.7978 4.57492 14.7932 4.70543L14.406 15.9365C14.397 16.195 14.1875 16.3975 13.9289 16.3975H12.0711C11.8125 16.3975 11.603 16.195 11.5941 15.9366L11.2068 4.70548C11.2022 4.57487 11.2497 4.45127 11.3405 4.35732ZM25.1577 20.0868C25.1577 20.0981 25.1528 20.1111 25.1417 20.1147C21.8409 21.1939 17.5288 21.7883 13 21.7883C8.47118 21.7883 4.15914 21.1939 0.858305 20.1146C0.847285 20.111 0.842359 20.098 0.842359 20.0867V19.514C0.842359 19.4985 0.854953 19.4859 0.870441 19.4859H17.0432C17.2758 19.4859 17.4644 19.2974 17.4644 19.0647C17.4644 18.8322 17.2758 18.6436 17.0432 18.6436H1.74083V16.3693C1.74083 12.1365 4.11115 8.35604 7.69016 6.43793L8.60402 12.8353C8.63408 13.0454 8.8142 13.197 9.02048 13.197C9.04028 13.197 9.06034 13.1955 9.08055 13.1927C9.31084 13.1598 9.47086 12.9465 9.43795 12.7162L8.4858 6.05078C9.09218 5.78529 9.72806 5.57155 10.3884 5.41495L10.7523 15.9657C10.7769 16.6801 11.3562 17.2398 12.0712 17.2398H13.929C14.6439 17.2398 15.2232 16.6801 15.2479 15.9657L15.6117 5.415C16.272 5.57166 16.908 5.78539 17.5144 6.05083L16.5622 12.7163C16.5293 12.9466 16.6894 13.1598 16.9196 13.1928C16.9398 13.1956 16.9599 13.197 16.9797 13.197C17.1859 13.197 17.3661 13.0454 17.3961 12.8354L18.31 6.43798C21.889 8.35604 24.2593 12.1364 24.2593 16.3693V18.6436H21.5357C21.3031 18.6436 21.1145 18.8322 21.1145 19.0648C21.1145 19.2974 21.303 19.486 21.5357 19.486H25.1297C25.1452 19.486 25.1578 19.4986 25.1578 19.5141V20.0868H25.1577Z" fill="#0B5457"/>
<path d="M19.7386 18.6436H18.8401C18.6075 18.6436 18.4189 18.8322 18.4189 19.0648C18.4189 19.2974 18.6075 19.486 18.8401 19.486H19.7386C19.9712 19.486 20.1598 19.2974 20.1598 19.0648C20.1598 18.8322 19.9713 18.6436 19.7386 18.6436Z" fill="#0B5457"/>
<path d="M9.82304 15.4113L9.69461 14.5126C9.66171 14.2823 9.44853 14.1223 9.21813 14.1552C8.98784 14.1881 8.82783 14.4014 8.86073 14.6316L8.98911 15.5304C9.01917 15.7405 9.19929 15.892 9.40557 15.892C9.42537 15.892 9.44543 15.8906 9.46564 15.8878C9.69593 15.8549 9.85595 15.6415 9.82304 15.4113Z" fill="#0B5457"/>
<path d="M16.782 14.1552C16.5517 14.1222 16.3384 14.2823 16.3055 14.5126L16.1771 15.4113C16.1443 15.6416 16.3043 15.8549 16.5345 15.8878C16.5547 15.8906 16.5748 15.892 16.5946 15.892C16.8008 15.892 16.981 15.7404 17.0111 15.5304L17.1394 14.6317C17.1722 14.4014 17.0122 14.1881 16.782 14.1552Z" fill="#0B5457"/>
</g>
<defs>
<clipPath id="clip0_42_377">
<rect width="26" height="26" fill="white"/>
</clipPath>
</defs>
</svg>
