<svg width="19" height="19" viewBox="0 0 19 19" fill="none" xmlns="http://www.w3.org/2000/svg">
<path d="M7.91667 15.0417H4.90833C4.02159 15.0417 3.57821 15.0417 3.23952 14.8691C2.94159 14.7173 2.69937 14.4751 2.54758 14.1772C2.375 13.8385 2.375 13.3951 2.375 12.5083V6.49167C2.375 5.60492 2.375 5.16154 2.54758 4.82285C2.69937 4.52492 2.94159 4.2827 3.23952 4.13091C3.57821 3.95833 4.02159 3.95833 4.90833 3.95833H14.0917C14.9784 3.95833 15.4218 3.95833 15.7605 4.13091C16.0584 4.2827 16.3007 4.52492 16.4524 4.82285C16.625 5.16154 16.625 5.60492 16.625 6.49167V7.91667M16.3136 6.54098L12.3103 9.20985C11.2946 9.88697 10.7868 10.2256 10.2378 10.3571C9.7527 10.4734 9.24698 10.4734 8.76193 10.3571C8.21299 10.2256 7.70513 9.88697 6.68939 9.20985L2.49174 6.41141M11.0833 16.625L12.6865 16.3044C12.8262 16.2764 12.8961 16.2624 12.9612 16.2368C13.0191 16.2142 13.0741 16.1848 13.125 16.1492C13.1825 16.1091 13.2329 16.0588 13.3337 15.9579L16.625 12.6667C17.0622 12.2294 17.0622 11.5206 16.625 11.0833C16.1878 10.6461 15.4789 10.6461 15.0417 11.0833L11.7504 14.3746C11.6495 14.4755 11.5992 14.5258 11.5591 14.5833C11.5236 14.6342 11.4941 14.6892 11.4715 14.7471C11.4459 14.8122 11.4319 14.8821 11.404 15.0219L11.0833 16.625Z" stroke="#0B5457" stroke-width="1.2" stroke-linecap="round" stroke-linejoin="round"/>
</svg>
