<svg width="19" height="19" viewBox="0 0 19 19" fill="none" xmlns="http://www.w3.org/2000/svg">
<path d="M7.91667 15.0413H4.90833C4.02159 15.0413 3.57821 15.0413 3.23952 14.8688C2.94159 14.717 2.69937 14.4747 2.54758 14.1768C2.375 13.8382 2.375 13.3948 2.375 12.508V6.49134C2.375 5.6046 2.375 5.16121 2.54758 4.82252C2.69937 4.5246 2.94159 4.28238 3.23952 4.13058C3.57821 3.95801 4.02159 3.95801 4.90833 3.95801H14.0917C14.9784 3.95801 15.4218 3.95801 15.7605 4.13058C16.0584 4.28238 16.3007 4.5246 16.4524 4.82252C16.625 5.16121 16.625 5.6046 16.625 6.49134V7.91634M16.3136 6.54065L12.3103 9.20953C11.2946 9.88664 10.7868 10.2252 10.2378 10.3568C9.7527 10.473 9.24698 10.473 8.76193 10.3568C8.21299 10.2252 7.70513 9.88664 6.68939 9.20953L2.49174 6.41109M11.0833 16.6247L12.6865 16.304C12.8262 16.2761 12.8961 16.2621 12.9612 16.2365C13.0191 16.2139 13.0741 16.1844 13.125 16.1489C13.1825 16.1088 13.2329 16.0585 13.3337 15.9576L16.625 12.6663C17.0622 12.2291 17.0622 11.5202 16.625 11.083C16.1878 10.6458 15.4789 10.6458 15.0417 11.083L11.7504 14.3743C11.6495 14.4751 11.5992 14.5255 11.5591 14.583C11.5236 14.6339 11.4941 14.6889 11.4715 14.7468C11.4459 14.8119 11.4319 14.8818 11.404 15.0215L11.0833 16.6247Z" stroke="white" stroke-width="1.2" stroke-linecap="round" stroke-linejoin="round"/>
</svg>
