<svg width="19" height="19" viewBox="0 0 19 19" fill="none" xmlns="http://www.w3.org/2000/svg">
<path d="M3 3.94444C3 10.6025 8.39747 16 15.0556 16C15.3559 16 15.6538 15.989 15.9487 15.9674C16.2871 15.9426 16.4563 15.9302 16.6103 15.8416C16.7379 15.7681 16.8589 15.6379 16.9228 15.5053C17 15.3453 17 15.1585 17 14.7851V12.5939C17 12.2798 17 12.1228 16.9483 11.9882C16.9027 11.8693 16.8285 11.7634 16.7324 11.6799C16.6235 11.5853 16.476 11.5317 16.1808 11.4243L13.6866 10.5174C13.3433 10.3925 13.1716 10.3301 13.0087 10.3407C12.865 10.35 12.7268 10.3991 12.6094 10.4823C12.4762 10.5766 12.3822 10.7333 12.1943 11.0466L11.5556 12.1111C9.49452 11.1777 7.8237 9.5047 6.88889 7.44444L7.95336 6.80575C8.26672 6.61777 8.42337 6.52377 8.51771 6.3906C8.60093 6.27317 8.65001 6.13495 8.65934 5.99132C8.66992 5.82843 8.60747 5.65675 8.48263 5.31337L7.57567 2.81916C7.46833 2.52404 7.41467 2.37647 7.32009 2.26763C7.23656 2.17149 7.1307 2.09734 7.01178 2.05168C6.87722 2 6.72019 2 6.40612 2H4.21489C3.84148 2 3.65473 2 3.49467 2.07719C3.36206 2.14114 3.23185 2.26212 3.15843 2.38969C3.06977 2.54372 3.0574 2.71293 3.03259 3.05135C3.01097 3.34622 3 3.64405 3 3.94444Z" stroke="white" stroke-width="1.2" stroke-linecap="round" stroke-linejoin="round"/>
</svg>
