<svg width="26" height="26" viewBox="0 0 26 26" fill="none" xmlns="http://www.w3.org/2000/svg">
<g clip-path="url(#clip0_42_392)">
<path d="M25.5855 21.9857L21.0204 17.4206C21.0203 17.4205 21.0203 17.4205 21.0201 17.4203C21.02 17.4202 21.02 17.4202 21.0198 17.42L19.388 15.7881C18.8367 15.2369 17.9396 15.2367 17.3882 15.7881L17.1881 15.9882L16.499 15.299C17.8491 13.6802 18.6626 11.599 18.6626 9.33126C18.6625 4.186 14.4765 0 9.33121 0C4.1859 0 0 4.186 0 9.33126C0 14.4765 4.1859 18.6625 9.33121 18.6625C11.599 18.6625 13.6802 17.849 15.299 16.4989L15.9881 17.188L15.788 17.3881C15.2369 17.9394 15.2369 18.8365 15.7881 19.3879L21.9856 25.5854C22.5382 26.1381 23.4329 26.1382 23.9856 25.5855L25.5855 23.9856C26.1369 23.4342 26.1369 22.5371 25.5855 21.9857ZM9.33121 16.9656C5.12164 16.9656 1.69691 13.5408 1.69691 9.33126C1.69691 5.1217 5.12164 1.69696 9.33121 1.69696C13.5408 1.69696 16.9656 5.1217 16.9656 9.33126C16.9656 13.5408 13.5408 16.9656 9.33121 16.9656ZM17.1881 18.388L18.388 17.1881L19.2202 18.0203L18.0203 19.2202L17.1881 18.388ZM22.9856 24.1855L19.2202 20.4201L20.4201 19.2202L24.1855 22.9856L22.9856 24.1855Z" fill="#0B5457"/>
<path d="M9.3319 3.39398C8.86329 3.39398 8.4834 3.77388 8.4834 4.24249C8.4834 4.7111 8.86329 5.09099 9.3319 5.09099C11.6701 5.09099 13.5724 6.9931 13.5724 9.33122C13.5724 9.79983 13.9523 10.1797 14.4209 10.1797C14.8895 10.1797 15.2694 9.79983 15.2694 9.33122C15.2694 6.05741 12.6058 3.39398 9.3319 3.39398Z" fill="#0B5457"/>
</g>
<defs>
<clipPath id="clip0_42_392">
<rect width="26" height="26" fill="white"/>
</clipPath>
</defs>
</svg>
